<svg width="24" height="24" viewBox="0 0 24 24" fill="none" xmlns="http://www.w3.org/2000/svg">
<mask id="mask0_19_585" style="mask-type:alpha" maskUnits="userSpaceOnUse" x="0" y="0" width="24" height="24">
<rect width="24" height="24" fill="#D9D9D9"/>
</mask>
<g mask="url(#mask0_19_585)">
</g>
<g clip-path="url(#clip0_19_585)">
<path d="M23 21.8541C22.979 21.9102 22.9554 21.9651 22.9369 22.0219C22.6319 22.963 21.4949 23.2814 20.7459 22.635C20.684 22.5815 20.6266 22.5228 20.5691 22.4653C17.95 19.8469 15.3316 17.2284 12.7138 14.6087C12.6563 14.5513 12.6117 14.4811 12.5485 14.4C12.4605 14.4836 12.4018 14.5372 12.3456 14.5934C9.70738 17.231 7.06787 19.8673 4.43282 22.5087C3.99832 22.9439 3.49492 23.0861 2.92134 22.8807C2.03639 22.5642 1.7563 21.4566 2.36498 20.7407C2.42687 20.668 2.49577 20.6017 2.5634 20.534C5.18186 17.9149 7.80032 15.2965 10.4201 12.6786C10.4775 12.6212 10.5489 12.5778 10.6568 12.4943C10.5458 12.4094 10.4679 12.3622 10.406 12.3003C7.77225 9.66844 5.13848 7.03594 2.50598 4.40217C1.852 3.74755 1.88582 2.7937 2.60232 2.28966C2.80585 2.14675 3.07255 2.09443 3.30989 2C3.36476 2 3.419 2 3.47387 2C3.97217 2.06061 4.3167 2.36495 4.65613 2.70566C7.21717 5.27754 9.78586 7.84177 12.3526 10.4079C12.4043 10.4596 12.4592 10.5094 12.5453 10.591C12.6027 10.5202 12.648 10.4519 12.7048 10.3945C15.2659 7.8322 17.8301 5.27308 20.386 2.70566C20.7248 2.36495 21.0687 2.05997 21.5677 2C21.6225 2 21.6768 2 21.7316 2C21.9792 2.10145 22.2433 2.17418 22.4692 2.31072C22.7729 2.49383 22.8967 2.8205 23.0007 3.14653V3.59698C22.9005 4.0117 22.6338 4.31157 22.3397 4.60442C19.7608 7.17503 17.1882 9.75202 14.6113 12.3245C14.5557 12.3801 14.4747 12.41 14.3771 12.4694C14.5022 12.5759 14.5634 12.6206 14.6164 12.6735C17.1965 15.2524 19.7742 17.8339 22.3582 20.409C22.6478 20.698 22.905 20.996 23.0007 21.4043V21.8547L23 21.8541Z" fill="#374151"/>
</g>
<defs>
<clipPath id="clip0_19_585">
<rect width="21" height="21" fill="white" transform="translate(2 2)"/>
</clipPath>
</defs>
</svg>
