<svg width="270" height="157" viewBox="0 0 270 157" fill="none" xmlns="http://www.w3.org/2000/svg">
<rect width="270" height="157" rx="8" fill="#EEEEEE"/>
<g filter="url(#filter0_d_19_995)">
<rect x="109" y="26" width="52" height="50" rx="8" fill="white"/>
</g>
<path d="M128.903 59.2804L128.906 56.2999C130.181 57.313 131.621 57.8203 133.225 57.822C134.528 57.8233 135.567 57.5281 136.343 56.9365C137.127 56.3448 137.519 55.5432 137.52 54.5314C137.522 52.3075 135.823 51.1938 132.423 51.1903L130.906 51.1887L130.908 48.6457L132.357 48.6472C135.374 48.6503 136.883 47.6037 136.885 45.5073C136.886 43.5751 135.711 42.6077 133.36 42.6053C132.047 42.6039 130.812 43.0721 129.653 44.0097L129.656 41.1933C130.987 40.4473 132.559 40.0752 134.373 40.077C136.114 40.0788 137.508 40.5178 138.556 41.3938C139.603 42.2699 140.127 43.3915 140.125 44.7587C140.123 47.3381 138.81 48.9957 136.184 49.7312L136.184 49.7859C137.597 49.9241 138.713 50.422 139.533 51.2796C140.352 52.1281 140.762 53.1904 140.761 54.4664C140.759 56.2255 140.097 57.6467 138.775 58.73C137.452 59.8042 135.711 60.3401 133.551 60.3379C131.609 60.3359 130.06 59.9834 128.903 59.2804Z" fill="#37BE43"/>
<path d="M101.314 109.022L92.6661 109.013L92.6781 93.6087L100.982 93.6172L100.98 95.7872L95.233 95.7813L95.2296 100.143L100.526 100.148L100.524 102.307L95.2279 102.302L95.2244 106.856L101.315 106.863L101.314 109.022ZM113.197 98.0341L109.53 103.595L113.146 109.034L110.256 109.031L108.325 105.624C108.204 105.416 108.061 105.151 107.896 104.828L107.853 104.828C107.825 104.893 107.674 105.158 107.401 105.623L105.433 109.026L102.554 109.023L106.297 103.634L102.756 98.0234L105.656 98.0263L107.555 101.605C107.698 101.871 107.837 102.143 107.973 102.422L108.005 102.422L110.469 98.0313L113.197 98.0341ZM117.771 107.417L117.728 107.417L117.723 114.098L115.231 114.096L115.244 98.0362L117.736 98.0387L117.734 99.9723L117.777 99.9724C118.631 98.5123 119.877 97.7831 121.517 97.7848C122.914 97.7863 124.002 98.2779 124.782 99.2599C125.561 100.242 125.951 101.56 125.949 103.214C125.948 105.048 125.506 106.515 124.625 107.617C123.743 108.719 122.539 109.269 121.014 109.268C119.61 109.266 118.53 108.649 117.771 107.417ZM117.71 103.077L117.709 104.441C117.709 105.243 117.962 105.924 118.47 106.483C118.986 107.042 119.637 107.322 120.425 107.323C121.349 107.324 122.072 106.966 122.596 106.251C123.126 105.528 123.392 104.522 123.393 103.233C123.394 102.152 123.147 101.306 122.654 100.697C122.167 100.081 121.505 99.7721 120.667 99.7713C119.779 99.7703 119.063 100.085 118.518 100.714C117.98 101.344 117.711 102.131 117.71 103.077ZM138.028 104.236L130.53 104.229C130.558 105.246 130.869 106.03 131.463 106.582C132.064 107.134 132.887 107.411 133.933 107.412C135.107 107.413 136.185 107.063 137.167 106.362L137.165 108.371C136.162 109 134.837 109.314 133.19 109.312C131.572 109.311 130.301 108.812 129.378 107.815C128.462 106.812 128.005 105.404 128.006 103.592C128.007 101.881 128.513 100.488 129.524 99.4151C130.542 98.3348 131.803 97.7954 133.306 97.7969C134.81 97.7985 135.974 98.2831 136.797 99.2507C137.619 100.218 138.03 101.562 138.029 103.28L138.028 104.236ZM135.623 102.472C135.617 101.577 135.406 100.882 134.991 100.388C134.576 99.8858 134.003 99.6346 133.273 99.6338C132.557 99.6331 131.948 99.8938 131.446 100.416C130.952 100.938 130.647 101.622 130.531 102.467L135.623 102.472ZM150.619 109.073L148.127 109.07L148.129 107.201L148.086 107.201C147.282 108.618 146.047 109.326 144.378 109.324C143.024 109.323 141.94 108.831 141.124 107.849C140.316 106.86 139.912 105.517 139.913 103.819C139.915 102 140.364 100.543 141.26 99.4486C142.163 98.3539 143.363 97.8072 144.859 97.8088C146.342 97.8103 147.419 98.4058 148.092 99.5953L148.134 99.5953L148.14 92.7848L150.632 92.7874L150.619 109.073ZM148.163 104.043L148.164 102.603C148.165 101.823 147.911 101.16 147.403 100.615C146.895 100.07 146.247 99.7975 145.46 99.7967C144.529 99.7957 143.794 100.142 143.257 100.836C142.726 101.531 142.46 102.493 142.459 103.725C142.459 104.842 142.712 105.727 143.22 106.379C143.735 107.024 144.426 107.347 145.293 107.348C146.145 107.349 146.836 107.038 147.366 106.416C147.897 105.786 148.163 104.995 148.163 104.043ZM155.361 95.7678C154.953 95.7674 154.602 95.6345 154.309 95.3693C154.023 95.104 153.88 94.7673 153.88 94.3591C153.88 93.9509 154.024 93.6108 154.311 93.339C154.604 93.0672 154.955 92.9314 155.364 92.9319C155.786 92.9323 156.144 93.0687 156.437 93.3412C156.731 93.6136 156.877 93.9539 156.877 94.3621C156.877 94.7489 156.73 95.0817 156.436 95.3607C156.142 95.6325 155.784 95.7682 155.361 95.7678ZM156.586 109.079L154.094 109.076L154.103 98.0761L156.595 98.0786L156.586 109.079ZM165.873 108.97C165.386 109.213 164.745 109.334 163.95 109.333C161.816 109.331 160.749 108.306 160.751 106.258L160.756 100.038L158.919 100.036L158.92 98.081L160.757 98.0829L160.759 95.537L163.252 94.8306L163.249 98.0855L165.881 98.0882L165.88 100.043L163.248 100.041L163.244 105.541C163.243 106.192 163.361 106.658 163.597 106.937C163.833 107.217 164.227 107.357 164.778 107.358C165.201 107.358 165.566 107.237 165.874 106.993L165.873 108.97ZM177.43 104.277L169.931 104.269C169.959 105.286 170.27 106.071 170.864 106.623C171.465 107.175 172.289 107.451 173.334 107.452C174.509 107.453 175.587 107.104 176.568 106.403L176.567 108.412C175.564 109.041 174.239 109.355 172.592 109.353C170.973 109.351 169.702 108.852 168.779 107.856C167.863 106.852 167.406 105.445 167.408 103.633C167.409 101.921 167.915 100.529 168.925 99.4556C169.943 98.3752 171.204 97.8358 172.708 97.8374C174.212 97.8389 175.375 98.3235 176.198 99.2912C177.021 100.259 177.432 101.602 177.43 103.321L177.43 104.277ZM175.025 102.513C175.018 101.617 174.807 100.923 174.392 100.428C173.977 99.9262 173.405 99.675 172.674 99.6743C171.958 99.6735 171.349 99.9343 170.848 100.457C170.353 100.979 170.048 101.662 169.933 102.507L175.025 102.513Z" fill="#374151"/>
<path d="M81.7833 133.042L81.792 121.839L84.8858 121.842C88.8337 121.846 90.8062 123.668 90.8034 127.309C90.802 129.038 90.2515 130.428 89.1517 131.479C88.0571 132.525 86.5906 133.047 84.7521 133.045L81.7833 133.042ZM83.1036 123.028L83.0967 131.856L84.7686 131.857C86.2373 131.859 87.3809 131.467 88.1992 130.681C89.0175 129.896 89.4272 128.781 89.4284 127.339C89.4306 124.469 87.9057 123.033 84.8536 123.029L83.1036 123.028ZM93.6542 123.023C93.4251 123.023 93.2298 122.944 93.0685 122.788C92.9071 122.631 92.8266 122.433 92.8267 122.194C92.8269 121.954 92.9078 121.756 93.0694 121.6C93.231 121.439 93.4263 121.359 93.6555 121.359C93.8899 121.359 94.0877 121.44 94.2491 121.602C94.4156 121.758 94.4988 121.956 94.4986 122.196C94.4984 122.425 94.415 122.62 94.2482 122.781C94.0866 122.943 93.8886 123.023 93.6542 123.023ZM94.2714 133.055L92.9902 133.053L92.9964 125.053L94.2776 125.055L94.2714 133.055ZM103.854 132.424C103.852 135.361 102.444 136.829 99.6316 136.826C98.642 136.825 97.7776 136.636 97.0383 136.261L97.0393 134.979C97.94 135.48 98.7991 135.731 99.6168 135.732C101.586 135.734 102.571 134.688 102.572 132.594L102.573 131.719L102.542 131.719C101.932 132.74 101.015 133.249 99.7906 133.248C98.7959 133.247 97.994 132.892 97.3852 132.183C96.7816 131.469 96.4803 130.513 96.4812 129.315C96.4823 127.955 96.8086 126.875 97.4603 126.074C98.1172 125.272 99.0133 124.872 100.149 124.873C101.227 124.874 102.026 125.307 102.546 126.173L102.577 126.173L102.578 125.063L103.86 125.065L103.854 132.424ZM102.575 129.446L102.576 128.266C102.576 127.631 102.361 127.086 101.929 126.633C101.502 126.179 100.968 125.952 100.328 125.952C99.5359 125.951 98.9159 126.239 98.4675 126.817C98.0192 127.389 97.7946 128.194 97.7938 129.23C97.7931 130.121 98.0061 130.835 98.4327 131.371C98.8646 131.903 99.4347 132.169 100.143 132.17C100.862 132.171 101.445 131.916 101.894 131.406C102.347 130.896 102.574 130.243 102.575 129.446ZM107.271 123.037C107.042 123.037 106.847 122.958 106.685 122.802C106.524 122.645 106.443 122.447 106.444 122.208C106.444 121.968 106.525 121.77 106.686 121.614C106.848 121.453 107.043 121.372 107.272 121.373C107.507 121.373 107.705 121.454 107.866 121.616C108.032 121.772 108.116 121.97 108.115 122.21C108.115 122.439 108.032 122.634 107.865 122.795C107.703 122.957 107.505 123.037 107.271 123.037ZM107.888 133.069L106.607 133.067L106.613 125.067L107.895 125.069L107.888 133.069ZM114.353 132.997C114.051 133.164 113.652 133.246 113.158 133.246C111.756 133.245 111.057 132.463 111.058 130.9L111.061 126.166L109.686 126.164L109.687 125.071L111.062 125.072L111.064 123.119L112.345 122.706L112.344 125.073L114.359 125.075L114.358 126.169L112.343 126.167L112.339 130.675C112.339 131.211 112.43 131.594 112.612 131.824C112.794 132.053 113.096 132.168 113.518 132.168C113.841 132.169 114.119 132.08 114.354 131.903L114.353 132.997ZM121.95 133.083L120.669 133.082L120.67 131.832L120.639 131.832C120.081 132.79 119.26 133.268 118.177 133.267C117.38 133.266 116.755 133.054 116.302 132.632C115.855 132.21 115.631 131.65 115.632 130.952C115.633 129.457 116.514 128.588 118.274 128.345L120.673 128.011C120.674 126.652 120.125 125.972 119.026 125.971C118.063 125.97 117.193 126.297 116.416 126.952L116.417 125.64C117.204 125.141 118.11 124.892 119.137 124.893C121.017 124.895 121.956 125.89 121.955 127.88L121.95 133.083ZM120.672 129.035L118.742 129.299C118.149 129.381 117.701 129.529 117.398 129.743C117.096 129.951 116.945 130.323 116.944 130.859C116.944 131.25 117.082 131.57 117.358 131.821C117.639 132.066 118.011 132.188 118.475 132.189C119.11 132.19 119.634 131.969 120.045 131.526C120.462 131.079 120.671 130.514 120.672 129.832L120.672 129.035ZM125.806 133.087L124.525 133.086L124.534 121.242L125.815 121.243L125.806 133.087ZM133.282 133.095L133.291 121.892L136.384 121.895C140.332 121.899 142.305 123.721 142.302 127.362C142.301 129.091 141.75 130.481 140.65 131.532C139.556 132.578 138.089 133.1 136.251 133.098L133.282 133.095ZM134.602 123.08L134.595 131.909L136.267 131.91C137.736 131.912 138.88 131.52 139.698 130.734C140.516 129.949 140.926 128.834 140.927 127.392C140.929 124.522 139.404 123.085 136.352 123.082L134.602 123.08ZM150.921 129.433L145.273 129.427C145.293 130.318 145.532 131.006 145.99 131.491C146.448 131.975 147.078 132.218 147.88 132.219C148.781 132.22 149.61 131.924 150.365 131.331L150.364 132.534C149.661 133.044 148.731 133.298 147.575 133.297C146.444 133.296 145.557 132.933 144.911 132.208C144.266 131.478 143.944 130.455 143.945 129.137C143.946 127.892 144.298 126.879 145.002 126.099C145.711 125.313 146.589 124.921 147.636 124.922C148.683 124.923 149.492 125.262 150.065 125.94C150.637 126.618 150.923 127.558 150.922 128.761L150.921 129.433ZM149.61 128.346C149.605 127.606 149.426 127.031 149.072 126.619C148.723 126.207 148.237 126.001 147.612 126C147.007 125.999 146.494 126.215 146.072 126.647C145.65 127.079 145.389 127.644 145.289 128.341L149.61 128.346ZM154.305 133.116L153.024 133.115L153.033 121.271L154.314 121.273L154.305 133.116ZM157.723 123.089C157.494 123.088 157.299 123.01 157.137 122.854C156.976 122.697 156.895 122.499 156.895 122.26C156.896 122.02 156.977 121.822 157.138 121.666C157.3 121.505 157.495 121.424 157.724 121.425C157.959 121.425 158.156 121.506 158.318 121.667C158.484 121.824 158.568 122.022 158.567 122.261C158.567 122.49 158.484 122.686 158.317 122.847C158.155 123.008 157.957 123.089 157.723 123.089ZM158.34 133.12L157.059 133.119L157.065 125.119L158.346 125.12L158.34 133.12ZM167.389 125.13L164.195 133.126L162.938 133.125L159.913 125.122L161.319 125.124L163.346 130.938C163.496 131.365 163.59 131.738 163.626 132.056L163.657 132.056C163.71 131.655 163.793 131.293 163.908 130.97L166.038 125.128L167.389 125.13ZM175.358 129.458L169.71 129.452C169.73 130.343 169.969 131.031 170.427 131.516C170.885 132.001 171.515 132.243 172.317 132.244C173.218 132.245 174.046 131.949 174.802 131.356L174.801 132.559C174.098 133.069 173.168 133.323 172.012 133.322C170.881 133.321 169.994 132.958 169.348 132.233C168.703 131.504 168.381 130.48 168.382 129.162C168.383 127.917 168.735 126.905 169.439 126.124C170.148 125.338 171.026 124.946 172.073 124.947C173.12 124.948 173.929 125.288 174.502 125.965C175.074 126.643 175.36 127.583 175.359 128.786L175.358 129.458ZM174.047 128.371C174.042 127.631 173.863 127.056 173.509 126.644C173.16 126.232 172.673 126.026 172.048 126.025C171.444 126.025 170.931 126.24 170.509 126.672C170.087 127.104 169.826 127.669 169.726 128.367L174.047 128.371ZM181.638 126.441C181.414 126.269 181.091 126.183 180.669 126.182C180.122 126.182 179.664 126.439 179.294 126.954C178.929 127.47 178.746 128.173 178.745 129.063L178.742 133.141L177.461 133.14L177.467 125.14L178.748 125.141L178.747 126.79L178.778 126.79C178.961 126.228 179.24 125.79 179.615 125.478C179.99 125.161 180.41 125.003 180.873 125.003C181.207 125.003 181.462 125.04 181.639 125.113L181.638 126.441ZM189.557 125.153L185.87 134.43C185.212 136.086 184.29 136.913 183.102 136.912C182.769 136.911 182.49 136.877 182.266 136.809L182.267 135.661C182.543 135.755 182.796 135.802 183.025 135.802C183.671 135.803 184.155 135.418 184.479 134.647L185.121 133.132L182.002 125.145L183.424 125.146L185.583 131.305C185.609 131.383 185.664 131.586 185.747 131.914L185.794 131.914C185.82 131.789 185.872 131.591 185.95 131.321L188.229 125.151L189.557 125.153Z" fill="#757575"/>
<defs>
<filter id="filter0_d_19_995" x="105" y="26" width="60" height="58" filterUnits="userSpaceOnUse" color-interpolation-filters="sRGB">
<feFlood flood-opacity="0" result="BackgroundImageFix"/>
<feColorMatrix in="SourceAlpha" type="matrix" values="0 0 0 0 0 0 0 0 0 0 0 0 0 0 0 0 0 0 127 0" result="hardAlpha"/>
<feOffset dy="4"/>
<feGaussianBlur stdDeviation="2"/>
<feComposite in2="hardAlpha" operator="out"/>
<feColorMatrix type="matrix" values="0 0 0 0 0 0 0 0 0 0 0 0 0 0 0 0 0 0 0.05 0"/>
<feBlend mode="normal" in2="BackgroundImageFix" result="effect1_dropShadow_19_995"/>
<feBlend mode="normal" in="SourceGraphic" in2="effect1_dropShadow_19_995" result="shape"/>
</filter>
</defs>
</svg>
