<svg width="270" height="157" viewBox="0 0 270 157" fill="none" xmlns="http://www.w3.org/2000/svg">
<rect width="270" height="157" rx="8" fill="#EEEEEE"/>
<g filter="url(#filter0_d_19_981)">
<rect x="109" y="26" width="52" height="50" rx="8" fill="white"/>
</g>
<path d="M137.791 39.9712L137.776 60.0141L134.604 60.0109L134.616 43.8507C134.042 44.2603 133.422 44.6106 132.756 44.9015C132.1 45.1834 131.348 45.4333 130.5 45.6512L130.502 42.9442C131.031 42.7715 131.541 42.5898 132.034 42.3989C132.526 42.208 133.009 41.9943 133.483 41.7578C133.967 41.5213 134.45 41.2575 134.933 40.9663C135.426 40.6751 135.932 40.343 136.451 39.9698L137.791 39.9712Z" fill="#37BE43"/>
<path d="M97.6612 109.018L89.0137 109.009L89.0257 93.605L97.3294 93.6135L97.3277 95.7834L91.5807 95.7775L91.5773 100.139L96.8732 100.144L96.8715 102.303L91.5756 102.298L91.5721 106.853L97.6629 106.859L97.6612 109.018ZM116.787 109.038L114.295 109.035L114.3 103.041C114.301 101.888 114.137 101.054 113.808 100.538C113.486 100.022 112.938 99.7633 112.165 99.7625C111.513 99.7619 110.958 100.087 110.499 100.738C110.047 101.39 109.821 102.17 109.82 103.079L109.816 109.031L107.313 109.028L107.318 102.83C107.319 100.782 106.597 99.7568 105.15 99.7553C104.477 99.7546 103.922 100.062 103.484 100.677C103.054 101.293 102.839 102.091 102.838 103.072L102.833 109.023L100.341 109.021L100.35 98.0209L102.842 98.0235L102.841 99.7637L102.884 99.7637C103.679 98.4325 104.837 97.7677 106.355 97.7693C107.114 97.77 107.776 97.982 108.342 98.4051C108.914 98.821 109.304 99.3693 109.511 100.05C110.329 98.5324 111.547 97.7746 113.165 97.7762C115.586 97.7787 116.795 99.2731 116.793 102.259L116.787 109.038ZM122.584 107.422L122.541 107.422L122.536 114.103L120.044 114.101L120.056 98.0411L122.548 98.0437L122.547 99.9773L122.59 99.9773C123.443 98.5173 124.69 97.7881 126.33 97.7898C127.726 97.7912 128.814 98.2829 129.594 99.2648C130.374 100.247 130.763 101.565 130.762 103.219C130.761 105.052 130.319 106.52 129.437 107.622C128.556 108.724 127.352 109.274 125.827 109.273C124.423 109.271 123.342 108.654 122.584 107.422ZM122.523 103.082L122.522 104.446C122.521 105.248 122.775 105.929 123.283 106.488C123.798 107.047 124.45 107.327 125.237 107.328C126.161 107.329 126.885 106.971 127.408 106.256C127.939 105.533 128.204 104.527 128.205 103.238C128.206 102.157 127.96 101.311 127.466 100.702C126.98 100.086 126.317 99.7771 125.479 99.7762C124.591 99.7753 123.875 100.09 123.33 100.719C122.793 101.349 122.524 102.136 122.523 103.082ZM143.299 109.065L140.807 109.062L140.811 103.047C140.813 100.87 140.087 99.7804 138.633 99.779C137.903 99.7782 137.286 100.093 136.785 100.722C136.283 101.352 136.032 102.157 136.031 103.139L136.026 109.058L133.523 109.055L133.536 92.7698L136.039 92.7724L136.033 99.8837L136.076 99.8838C136.908 98.4953 138.098 97.8018 139.644 97.8034C142.086 97.8059 143.306 99.3004 143.304 102.287L143.299 109.065ZM154.991 109.077L152.574 109.075L152.576 107.356L152.533 107.356C151.773 108.673 150.658 109.33 149.19 109.329C148.109 109.328 147.261 109.033 146.645 108.445C146.037 107.858 145.733 107.08 145.734 106.113C145.736 104.037 146.932 102.828 149.325 102.486L152.591 102.028C152.592 100.459 151.848 99.6744 150.358 99.6728C149.048 99.6715 147.866 100.121 146.812 101.023L146.814 98.842C147.974 98.1557 149.314 97.8134 150.832 97.8149C153.611 97.8178 154.999 99.187 154.997 101.923L154.991 109.077ZM152.589 103.671L150.28 103.991C149.563 104.083 149.022 104.258 148.657 104.516C148.299 104.766 148.119 105.21 148.119 105.847C148.119 106.313 148.283 106.696 148.612 106.997C148.948 107.291 149.396 107.438 149.955 107.439C150.714 107.44 151.341 107.175 151.835 106.646C152.337 106.109 152.588 105.437 152.589 104.627L152.589 103.671ZM157.575 108.736L157.577 106.426C158.507 107.136 159.535 107.492 160.659 107.493C162.163 107.495 162.915 107.051 162.916 106.163C162.916 105.913 162.852 105.701 162.723 105.529C162.594 105.35 162.419 105.192 162.197 105.056C161.982 104.92 161.724 104.798 161.424 104.69C161.13 104.582 160.801 104.46 160.436 104.324C159.985 104.144 159.577 103.954 159.212 103.753C158.854 103.552 158.553 103.326 158.31 103.076C158.074 102.817 157.895 102.527 157.773 102.205C157.652 101.882 157.591 101.506 157.592 101.077C157.592 100.547 157.718 100.081 157.969 99.6806C158.22 99.2727 158.556 98.9329 158.979 98.6612C159.402 98.3823 159.882 98.1751 160.419 98.0396C160.956 97.8969 161.511 97.8259 162.084 97.8265C163.101 97.8275 164.011 97.9824 164.813 98.2912L164.811 100.472C164.038 99.9411 163.15 99.6752 162.147 99.6742C161.832 99.6739 161.546 99.7058 161.288 99.77C161.037 99.8342 160.822 99.9235 160.643 100.038C160.464 100.152 160.324 100.292 160.224 100.456C160.124 100.614 160.073 100.789 160.073 100.983C160.073 101.219 160.123 101.42 160.223 101.584C160.323 101.749 160.47 101.896 160.663 102.025C160.864 102.147 161.1 102.262 161.372 102.37C161.651 102.47 161.97 102.582 162.328 102.704C162.8 102.898 163.223 103.095 163.595 103.296C163.974 103.497 164.296 103.726 164.561 103.984C164.826 104.235 165.03 104.529 165.173 104.866C165.316 105.195 165.387 105.589 165.387 106.048C165.386 106.606 165.257 107.093 164.999 107.508C164.741 107.923 164.397 108.267 163.967 108.538C163.537 108.81 163.039 109.01 162.473 109.138C161.914 109.274 161.323 109.341 160.7 109.341C159.497 109.339 158.455 109.138 157.575 108.736ZM169.245 95.7821C168.837 95.7816 168.486 95.6488 168.193 95.3835C167.907 95.1182 167.764 94.7815 167.764 94.3733C167.764 93.9651 167.908 93.6251 168.195 93.3532C168.488 93.0814 168.839 92.9457 169.248 92.9461C169.67 92.9466 170.028 93.083 170.322 93.3554C170.615 93.6279 170.761 93.9682 170.761 94.3764C170.761 94.7631 170.614 95.096 170.32 95.375C170.026 95.6468 169.668 95.7825 169.245 95.7821ZM170.47 109.093L167.978 109.09L167.987 98.0903L170.479 98.0929L170.47 109.093ZM173.269 108.752L173.271 106.442C174.201 107.152 175.228 107.508 176.353 107.509C177.857 107.511 178.609 107.067 178.61 106.179C178.61 105.929 178.546 105.717 178.417 105.545C178.288 105.366 178.113 105.208 177.891 105.072C177.676 104.936 177.418 104.814 177.118 104.706C176.824 104.598 176.495 104.476 176.13 104.34C175.679 104.16 175.271 103.97 174.905 103.769C174.548 103.568 174.247 103.343 174.004 103.092C173.768 102.834 173.589 102.543 173.467 102.221C173.346 101.899 173.285 101.523 173.286 101.093C173.286 100.563 173.412 100.098 173.663 99.6968C173.914 99.2888 174.25 98.949 174.673 98.6773C175.096 98.3984 175.576 98.1912 176.113 98.0557C176.65 97.913 177.205 97.842 177.778 97.8426C178.795 97.8436 179.705 97.9985 180.506 98.3073L180.505 100.488C179.732 99.9572 178.844 99.6913 177.841 99.6903C177.526 99.69 177.24 99.7219 176.982 99.7861C176.731 99.8503 176.516 99.9396 176.337 100.054C176.158 100.168 176.018 100.308 175.918 100.473C175.817 100.63 175.767 100.805 175.767 100.999C175.767 101.235 175.817 101.436 175.917 101.6C176.017 101.765 176.164 101.912 176.357 102.041C176.557 102.163 176.794 102.278 177.066 102.386C177.345 102.486 177.664 102.598 178.022 102.72C178.494 102.914 178.916 103.111 179.289 103.312C179.668 103.513 179.99 103.742 180.255 104C180.52 104.251 180.724 104.545 180.867 104.882C181.01 105.211 181.081 105.605 181.08 106.064C181.08 106.622 180.951 107.109 180.693 107.524C180.434 107.939 180.09 108.283 179.661 108.554C179.231 108.826 178.733 109.026 178.167 109.155C177.608 109.29 177.017 109.357 176.394 109.357C175.191 109.356 174.149 109.154 173.269 108.752Z" fill="#374151"/>
<path d="M92.531 133.24C90.9424 133.239 89.6694 132.714 88.7119 131.666C87.7596 130.618 87.2841 129.256 87.2854 127.579C87.2868 125.777 87.7749 124.34 88.7497 123.268C89.7244 122.196 91.0504 121.661 92.7275 121.662C94.2743 121.664 95.5187 122.186 96.4606 123.229C97.4077 124.271 97.8806 125.634 97.8793 127.316C97.8779 129.144 97.3924 130.589 96.4228 131.651C95.4533 132.712 94.156 133.242 92.531 133.24ZM92.6328 122.85C91.4557 122.849 90.4997 123.272 89.7646 124.12C89.0296 124.969 88.6615 126.083 88.6605 127.463C88.6594 128.843 89.0153 129.956 89.7282 130.8C90.4463 131.639 91.3808 132.06 92.5319 132.061C93.761 132.062 94.7301 131.662 95.4391 130.861C96.148 130.059 96.5031 128.937 96.5042 127.494C96.5053 126.015 96.1625 124.872 95.4756 124.064C94.7887 123.256 93.8411 122.851 92.6328 122.85ZM106.707 133.067L105.425 133.066L105.429 128.504C105.43 126.806 104.811 125.956 103.572 125.955C102.931 125.954 102.4 126.196 101.977 126.68C101.56 127.159 101.351 127.765 101.351 128.499L101.347 133.062L100.066 133.061L100.072 125.061L101.354 125.062L101.353 126.39L101.384 126.39C101.989 125.38 102.864 124.876 104.01 124.877C104.885 124.878 105.554 125.163 106.017 125.731C106.48 126.294 106.711 127.109 106.711 128.177L106.707 133.067ZM117.55 133C117.248 133.167 116.85 133.25 116.355 133.249C114.954 133.248 114.254 132.466 114.255 130.903L114.259 126.169L112.884 126.168L112.885 125.074L114.26 125.075L114.261 123.122L115.543 122.709L115.541 125.077L117.556 125.079L117.556 126.172L115.54 126.17L115.536 130.678C115.536 131.215 115.627 131.597 115.809 131.827C115.991 132.056 116.293 132.171 116.715 132.171C117.038 132.172 117.317 132.084 117.551 131.907L117.55 133ZM126.062 133.087L124.78 133.086L124.784 128.477C124.785 126.81 124.166 125.976 122.927 125.975C122.302 125.974 121.775 126.216 121.348 126.7C120.92 127.178 120.706 127.795 120.706 128.551L120.702 133.082L119.421 133.081L119.43 121.237L120.712 121.238L120.708 126.41L120.739 126.41C121.354 125.4 122.23 124.896 123.365 124.897C125.167 124.899 126.067 125.986 126.066 128.158L126.062 133.087ZM135.076 129.417L129.428 129.411C129.448 130.302 129.687 130.989 130.145 131.474C130.603 131.959 131.233 132.202 132.035 132.203C132.936 132.204 133.764 131.908 134.52 131.315L134.519 132.518C133.816 133.028 132.886 133.282 131.729 133.281C130.599 133.279 129.711 132.917 129.066 132.192C128.421 131.462 128.099 130.438 128.1 129.121C128.101 127.876 128.453 126.863 129.157 126.083C129.866 125.297 130.744 124.905 131.791 124.906C132.837 124.907 133.647 125.246 134.219 125.924C134.792 126.602 135.078 127.542 135.077 128.745L135.076 129.417ZM133.764 128.33C133.76 127.59 133.581 127.014 133.227 126.603C132.878 126.191 132.391 125.984 131.766 125.984C131.162 125.983 130.649 126.199 130.227 126.631C129.805 127.063 129.544 127.627 129.444 128.325L133.764 128.33ZM141.901 133.104L141.91 121.9L145.097 121.904C146.066 121.905 146.834 122.143 147.401 122.617C147.969 123.092 148.252 123.709 148.252 124.469C148.251 125.105 148.079 125.657 147.735 126.125C147.391 126.594 146.916 126.926 146.312 127.124L146.312 127.155C147.067 127.244 147.671 127.531 148.124 128.016C148.577 128.496 148.803 129.121 148.802 129.892C148.801 130.85 148.457 131.626 147.769 132.219C147.081 132.812 146.214 133.108 145.167 133.107L141.901 133.104ZM143.221 123.089L143.219 126.707L144.562 126.708C145.281 126.709 145.846 126.537 146.258 126.194C146.67 125.845 146.876 125.356 146.876 124.726C146.877 123.637 146.161 123.092 144.729 123.091L143.221 123.089ZM143.218 127.886L143.215 131.917L144.996 131.919C145.767 131.92 146.363 131.738 146.785 131.374C147.213 131.01 147.427 130.51 147.427 129.875C147.428 128.552 146.528 127.89 144.725 127.888L143.218 127.886ZM156.788 133.119L155.506 133.118L155.507 131.868L155.476 131.868C154.918 132.825 154.097 133.304 153.014 133.303C152.217 133.302 151.592 133.09 151.14 132.668C150.692 132.245 150.468 131.685 150.469 130.987C150.47 129.493 151.351 128.624 153.112 128.381L155.51 128.047C155.511 126.688 154.962 126.008 153.863 126.007C152.9 126.006 152.03 126.333 151.253 126.988L151.254 125.676C152.041 125.177 152.948 124.927 153.974 124.928C155.854 124.93 156.793 125.926 156.792 127.916L156.788 133.119ZM155.51 129.071L153.58 129.334C152.986 129.417 152.538 129.565 152.236 129.778C151.933 129.986 151.782 130.359 151.782 130.895C151.781 131.286 151.919 131.606 152.195 131.856C152.476 132.101 152.848 132.224 153.312 132.225C153.947 132.225 154.471 132.005 154.883 131.562C155.3 131.115 155.508 130.55 155.509 129.868L155.51 129.071ZM158.878 132.832L158.879 131.457C159.576 131.973 160.344 132.232 161.183 132.233C162.308 132.234 162.87 131.86 162.871 131.11C162.871 130.896 162.822 130.716 162.723 130.57C162.629 130.419 162.499 130.286 162.333 130.171C162.171 130.057 161.979 129.955 161.755 129.866C161.536 129.772 161.299 129.676 161.044 129.576C160.69 129.435 160.378 129.294 160.107 129.154C159.841 129.007 159.618 128.846 159.435 128.668C159.259 128.486 159.123 128.28 159.03 128.051C158.941 127.822 158.897 127.553 158.898 127.246C158.898 126.871 158.984 126.54 159.156 126.254C159.328 125.963 159.558 125.721 159.844 125.528C160.131 125.331 160.456 125.183 160.821 125.084C161.191 124.985 161.571 124.936 161.962 124.937C162.655 124.937 163.274 125.058 163.821 125.298L163.82 126.595C163.232 126.209 162.555 126.015 161.789 126.015C161.55 126.014 161.333 126.043 161.141 126.1C160.948 126.152 160.781 126.227 160.64 126.326C160.505 126.425 160.398 126.544 160.32 126.685C160.247 126.82 160.21 126.971 160.21 127.138C160.21 127.346 160.246 127.521 160.319 127.662C160.397 127.802 160.509 127.927 160.655 128.037C160.8 128.146 160.977 128.246 161.186 128.334C161.394 128.423 161.631 128.52 161.896 128.624C162.251 128.76 162.568 128.901 162.849 129.047C163.13 129.188 163.37 129.35 163.568 129.532C163.765 129.709 163.916 129.915 164.02 130.15C164.129 130.384 164.184 130.663 164.184 130.986C164.183 131.382 164.095 131.725 163.917 132.017C163.745 132.308 163.513 132.55 163.221 132.743C162.93 132.935 162.594 133.078 162.213 133.171C161.833 133.265 161.434 133.311 161.018 133.311C160.195 133.31 159.481 133.15 158.878 132.832ZM166.983 123.098C166.753 123.098 166.558 123.02 166.397 122.863C166.236 122.707 166.155 122.509 166.155 122.269C166.155 122.03 166.236 121.832 166.398 121.676C166.559 121.514 166.755 121.434 166.984 121.434C167.218 121.434 167.416 121.515 167.577 121.677C167.744 121.833 167.827 122.031 167.827 122.271C167.827 122.5 167.743 122.695 167.577 122.857C167.415 123.018 167.217 123.098 166.983 123.098ZM167.6 133.13L166.319 133.129L166.325 125.129L167.606 125.13L167.6 133.13ZM175.807 132.771C175.192 133.14 174.463 133.325 173.619 133.324C172.478 133.322 171.557 132.952 170.854 132.211C170.157 131.466 169.809 130.502 169.81 129.32C169.811 128.002 170.189 126.945 170.945 126.149C171.701 125.348 172.709 124.948 173.969 124.949C174.672 124.95 175.292 125.081 175.828 125.342L175.827 126.654C175.234 126.237 174.599 126.028 173.922 126.027C173.104 126.026 172.432 126.32 171.905 126.908C171.384 127.491 171.123 128.259 171.122 129.212C171.122 130.149 171.366 130.889 171.855 131.431C172.349 131.973 173.011 132.245 173.839 132.246C174.537 132.246 175.193 132.015 175.808 131.552L175.807 132.771ZM177.42 132.851L177.421 131.476C178.119 131.992 178.887 132.251 179.725 132.252C180.85 132.253 181.413 131.879 181.414 131.129C181.414 130.915 181.364 130.735 181.266 130.589C181.172 130.438 181.042 130.305 180.875 130.19C180.714 130.076 180.521 129.974 180.297 129.885C180.079 129.791 179.842 129.695 179.587 129.595C179.233 129.454 178.92 129.313 178.649 129.173C178.384 129.026 178.16 128.865 177.978 128.688C177.801 128.505 177.666 128.299 177.572 128.07C177.484 127.841 177.44 127.572 177.44 127.265C177.44 126.89 177.526 126.559 177.699 126.273C177.871 125.982 178.1 125.74 178.387 125.547C178.673 125.35 178.999 125.202 179.364 125.103C179.733 125.004 180.114 124.955 180.504 124.956C181.197 124.956 181.817 125.077 182.363 125.317L182.362 126.614C181.774 126.228 181.097 126.034 180.332 126.034C180.092 126.033 179.876 126.062 179.683 126.119C179.49 126.171 179.324 126.246 179.183 126.345C179.047 126.444 178.941 126.563 178.862 126.704C178.789 126.839 178.753 126.99 178.753 127.157C178.752 127.365 178.789 127.54 178.862 127.681C178.94 127.821 179.051 127.946 179.197 128.056C179.343 128.165 179.52 128.265 179.728 128.353C179.936 128.442 180.173 128.539 180.439 128.643C180.793 128.779 181.111 128.92 181.392 129.066C181.673 129.207 181.912 129.369 182.11 129.551C182.308 129.728 182.459 129.934 182.563 130.169C182.672 130.403 182.726 130.682 182.726 131.005C182.726 131.401 182.637 131.744 182.46 132.036C182.288 132.327 182.056 132.569 181.764 132.762C181.472 132.954 181.136 133.097 180.756 133.19C180.375 133.284 179.977 133.33 179.56 133.33C178.737 133.329 178.024 133.169 177.42 132.851Z" fill="#757575"/>
<defs>
<filter id="filter0_d_19_981" x="105" y="26" width="60" height="58" filterUnits="userSpaceOnUse" color-interpolation-filters="sRGB">
<feFlood flood-opacity="0" result="BackgroundImageFix"/>
<feColorMatrix in="SourceAlpha" type="matrix" values="0 0 0 0 0 0 0 0 0 0 0 0 0 0 0 0 0 0 127 0" result="hardAlpha"/>
<feOffset dy="4"/>
<feGaussianBlur stdDeviation="2"/>
<feComposite in2="hardAlpha" operator="out"/>
<feColorMatrix type="matrix" values="0 0 0 0 0 0 0 0 0 0 0 0 0 0 0 0 0 0 0.05 0"/>
<feBlend mode="normal" in2="BackgroundImageFix" result="effect1_dropShadow_19_981"/>
<feBlend mode="normal" in="SourceGraphic" in2="effect1_dropShadow_19_981" result="shape"/>
</filter>
</defs>
</svg>
