<svg width="270" height="157" viewBox="0 0 270 157" fill="none" xmlns="http://www.w3.org/2000/svg">
<rect width="270" height="157" rx="8" fill="#EEEEEE"/>
<g filter="url(#filter0_d_19_1002)">
<rect x="109" y="26" width="52" height="50" rx="8" fill="white"/>
</g>
<path d="M139.609 40.4105L139.599 53.0707L142.512 53.0737L142.51 55.7123L139.597 55.7094L139.594 60.016L136.518 60.0128L136.521 55.7062L127.648 55.6971L127.65 53.0311C128.453 52.1296 129.274 51.1551 130.114 50.1078C130.962 49.0514 131.774 47.9767 132.55 46.8838C133.334 45.7817 134.06 44.6796 134.726 43.5774C135.392 42.4752 135.954 41.4185 136.41 40.4073L139.609 40.4105ZM136.523 53.0675L136.53 44.8371C135.535 46.6225 134.549 48.1801 133.573 49.5098C132.606 50.8395 131.698 52.0235 130.849 53.0617L136.523 53.0675Z" fill="#37BE43"/>
<path d="M91.576 109.012L82.9285 109.003L82.9405 93.5987L91.2442 93.6073L91.2425 95.7772L85.4954 95.7713L85.492 100.133L90.7879 100.138L90.7863 102.297L85.4904 102.292L85.4868 106.846L91.5776 106.853L91.576 109.012ZM103.739 98.0244L99.4766 109.02L96.7803 109.017L92.7391 98.0131L95.4461 98.0159L97.8786 105.71C98.0644 106.276 98.1786 106.77 98.2212 107.193L98.2534 107.193C98.3183 106.663 98.4189 106.183 98.5553 105.753L101.118 98.0217L103.739 98.0244ZM113.726 109.035L111.309 109.032L111.31 107.313L111.267 107.313C110.507 108.63 109.393 109.288 107.925 109.286C106.844 109.285 105.995 108.991 105.38 108.403C104.771 107.815 104.468 107.038 104.468 106.071C104.47 103.994 105.667 102.785 108.059 102.444L111.325 101.985C111.326 100.417 110.582 99.632 109.093 99.6305C107.782 99.6291 106.6 100.079 105.547 100.98L105.548 98.7997C106.709 98.1134 108.048 97.771 109.567 97.7725C112.345 97.7754 113.734 99.1447 113.731 101.88L113.726 109.035ZM111.324 103.629L109.014 103.949C108.298 104.041 107.757 104.216 107.392 104.473C107.033 104.724 106.854 105.168 106.853 105.805C106.853 106.27 107.017 106.654 107.347 106.955C107.683 107.249 108.131 107.396 108.689 107.397C109.448 107.397 110.075 107.133 110.57 106.604C111.071 106.067 111.322 105.394 111.323 104.585L111.324 103.629ZM126.794 109.048L124.301 109.045L124.306 102.847C124.308 100.792 123.582 99.7635 122.128 99.762C121.369 99.7612 120.742 100.047 120.247 100.619C119.753 101.185 119.505 101.901 119.505 102.767L119.5 109.041L116.997 109.038L117.005 98.038L119.508 98.0406L119.507 99.8667L119.55 99.8668C120.374 98.4783 121.564 97.7849 123.118 97.7865C124.314 97.7877 125.226 98.1789 125.856 98.9602C126.486 99.7343 126.8 100.855 126.799 102.323L126.794 109.048ZM140.077 108.181C140.074 112.22 138.042 114.237 133.981 114.233C132.549 114.232 131.299 113.991 130.233 113.51L130.235 111.232C131.437 111.921 132.579 112.266 133.66 112.267C136.274 112.27 137.582 110.986 137.584 108.415L137.585 107.211L137.542 107.211C136.718 108.614 135.478 109.315 133.824 109.313C132.485 109.312 131.404 108.824 130.581 107.849C129.765 106.867 129.358 105.552 129.359 103.905C129.361 102.036 129.802 100.55 130.684 99.4485C131.566 98.3466 132.777 97.7964 134.316 97.798C135.77 97.7995 136.847 98.395 137.548 99.5845L137.591 99.5845L137.592 98.0591L140.085 98.0617L140.077 108.181ZM137.609 104.021L137.61 102.592C137.611 101.819 137.354 101.16 136.838 100.615C136.33 100.063 135.693 99.7867 134.927 99.7859C133.982 99.7849 133.24 100.135 132.703 100.836C132.172 101.53 131.906 102.504 131.905 103.757C131.905 104.839 132.158 105.706 132.666 106.358C133.181 107.003 133.861 107.326 134.706 107.327C135.566 107.328 136.264 107.02 136.802 106.405C137.339 105.783 137.609 104.988 137.609 104.021ZM152.857 104.252L145.359 104.244C145.387 105.261 145.698 106.045 146.292 106.597C146.893 107.149 147.717 107.426 148.762 107.427C149.937 107.428 151.015 107.078 151.996 106.378L151.995 108.386C150.992 109.016 149.667 109.329 148.019 109.328C146.401 109.326 145.13 108.827 144.207 107.831C143.291 106.827 142.834 105.419 142.835 103.607C142.837 101.896 143.343 100.504 144.353 99.4303C145.371 98.35 146.632 97.8106 148.136 97.8121C149.64 97.8137 150.803 98.2983 151.626 99.2659C152.449 100.234 152.859 101.577 152.858 103.296L152.857 104.252ZM150.453 102.487C150.446 101.592 150.235 100.897 149.82 100.403C149.405 99.901 148.833 99.6498 148.102 99.649C147.386 99.6483 146.777 99.9091 146.275 100.431C145.781 100.954 145.476 101.637 145.361 102.482L150.453 102.487ZM157.951 109.08L155.448 109.077L155.46 92.7923L157.963 92.7949L157.951 109.08ZM162.693 95.7753C162.284 95.7749 161.934 95.6421 161.64 95.3768C161.354 95.1115 161.211 94.7748 161.211 94.3666C161.212 93.9584 161.355 93.6184 161.642 93.3465C161.936 93.0747 162.287 92.939 162.695 92.9394C163.117 92.9398 163.475 93.0763 163.769 93.3487C164.062 93.6211 164.209 93.9615 164.208 94.3697C164.208 94.7564 164.061 95.0892 163.767 95.3682C163.473 95.6401 163.115 95.7758 162.693 95.7753ZM163.918 109.086L161.425 109.084L161.434 98.0836L163.926 98.0862L163.918 109.086ZM175.532 99.1401L169.585 107.148L175.504 107.154L175.503 109.098L166.093 109.088L166.093 108.154L172.169 100.039L166.68 100.033L166.681 98.089L175.533 98.0981L175.532 99.1401ZM187.167 104.287L179.669 104.279C179.697 105.296 180.008 106.081 180.602 106.633C181.203 107.185 182.026 107.461 183.072 107.462C184.246 107.463 185.324 107.114 186.306 106.413L186.305 108.422C185.301 109.051 183.976 109.365 182.329 109.363C180.711 109.361 179.44 108.862 178.517 107.866C177.601 106.862 177.144 105.455 177.145 103.643C177.146 101.931 177.652 100.539 178.663 99.4656C179.681 98.3852 180.942 97.8458 182.446 97.8474C183.949 97.8489 185.113 98.3335 185.936 99.3011C186.758 100.269 187.169 101.612 187.168 103.331L187.167 104.287ZM184.762 102.523C184.756 101.627 184.545 100.933 184.13 100.438C183.715 99.9362 183.142 99.685 182.412 99.6843C181.696 99.6835 181.087 99.9443 180.585 100.467C180.091 100.989 179.786 101.672 179.67 102.517L184.762 102.523Z" fill="#374151"/>
<path d="M85.2324 133.045L85.2411 121.842L88.3348 121.845C92.2827 121.85 94.2553 123.672 94.2524 127.312C94.2511 129.042 93.7005 130.432 92.6008 131.483C91.5062 132.528 90.0397 133.05 88.2011 133.048L85.2324 133.045ZM86.5527 123.031L86.5458 131.859L88.2177 131.861C89.6864 131.862 90.8299 131.47 91.6483 130.685C92.4666 129.899 92.8763 128.785 92.8774 127.342C92.8797 124.473 91.3547 123.036 88.3026 123.033L86.5527 123.031ZM97.1033 123.026C96.8741 123.026 96.6789 122.948 96.5175 122.791C96.3562 122.635 96.2756 122.437 96.2758 122.197C96.276 121.958 96.3569 121.76 96.5185 121.604C96.68 121.443 96.8754 121.362 97.1046 121.362C97.339 121.363 97.5368 121.443 97.6981 121.605C97.8647 121.762 97.9479 121.96 97.9477 122.199C97.9475 122.428 97.864 122.623 97.6972 122.785C97.5356 122.946 97.3377 123.027 97.1033 123.026ZM97.7205 133.058L96.4392 133.057L96.4455 125.057L97.7267 125.058L97.7205 133.058ZM107.303 132.427C107.301 135.365 105.893 136.832 103.081 136.829C102.091 136.828 101.227 136.64 100.487 136.264L100.488 134.983C101.389 135.484 102.248 135.735 103.066 135.736C105.035 135.738 106.02 134.692 106.021 132.598L106.022 131.723L105.991 131.723C105.381 132.743 104.464 133.253 103.24 133.251C102.245 133.25 101.443 132.895 100.834 132.186C100.231 131.472 99.9293 130.516 99.9303 129.318C99.9313 127.959 100.258 126.879 100.909 126.077C101.566 125.276 102.462 124.876 103.598 124.877C104.676 124.878 105.475 125.311 105.995 126.176L106.026 126.176L106.027 125.067L107.309 125.068L107.303 132.427ZM106.024 129.45L106.025 128.27C106.025 127.634 105.81 127.09 105.378 126.636C104.951 126.183 104.417 125.956 103.777 125.955C102.985 125.954 102.365 126.243 101.917 126.82C101.468 127.393 101.244 128.197 101.243 129.234C101.242 130.124 101.455 130.838 101.882 131.375C102.314 131.907 102.884 132.173 103.592 132.174C104.311 132.174 104.894 131.92 105.343 131.41C105.796 130.9 106.023 130.246 106.024 129.45ZM110.72 123.04C110.491 123.04 110.296 122.962 110.134 122.805C109.973 122.649 109.892 122.451 109.893 122.211C109.893 121.972 109.974 121.774 110.135 121.618C110.297 121.457 110.492 121.376 110.721 121.376C110.956 121.377 111.154 121.457 111.315 121.619C111.482 121.775 111.565 121.973 111.565 122.213C111.564 122.442 111.481 122.637 111.314 122.799C111.152 122.96 110.955 123.041 110.72 123.04ZM111.337 133.072L110.056 133.071L110.062 125.071L111.344 125.072L111.337 133.072ZM117.802 133.001C117.5 133.167 117.101 133.25 116.607 133.25C115.206 133.248 114.506 132.466 114.507 130.904L114.511 126.169L113.136 126.168L113.136 125.074L114.511 125.075L114.513 123.122L115.794 122.71L115.793 125.077L117.808 125.079L117.807 126.173L115.792 126.171L115.788 130.678C115.788 131.215 115.879 131.598 116.061 131.827C116.243 132.056 116.545 132.171 116.967 132.172C117.29 132.172 117.568 132.084 117.803 131.907L117.802 133.001ZM125.4 133.087L124.118 133.085L124.119 131.835L124.088 131.835C123.53 132.793 122.709 133.271 121.626 133.27C120.829 133.269 120.204 133.058 119.751 132.636C119.304 132.213 119.08 131.653 119.081 130.955C119.082 129.46 119.963 128.591 121.724 128.349L124.122 128.015C124.123 126.656 123.574 125.975 122.475 125.974C121.512 125.973 120.642 126.301 119.865 126.956L119.866 125.643C120.653 125.144 121.56 124.895 122.586 124.896C124.466 124.898 125.405 125.894 125.404 127.884L125.4 133.087ZM124.121 129.038L122.192 129.302C121.598 129.385 121.15 129.533 120.847 129.746C120.545 129.954 120.394 130.326 120.393 130.863C120.393 131.253 120.531 131.574 120.807 131.824C121.088 132.069 121.46 132.192 121.924 132.192C122.559 132.193 123.083 131.972 123.494 131.53C123.912 131.083 124.12 130.518 124.121 129.835L124.121 129.038ZM129.255 133.091L127.974 133.089L127.983 121.246L129.264 121.247L129.255 133.091ZM146.551 133.288C146.254 133.288 145.991 133.246 145.762 133.162C145.538 133.084 145.33 132.972 145.138 132.826C144.945 132.674 144.758 132.492 144.575 132.278C144.399 132.064 144.211 131.822 144.014 131.551C143.805 131.775 143.563 131.991 143.286 132.199C143.015 132.407 142.713 132.591 142.38 132.753C142.046 132.914 141.682 133.041 141.286 133.134C140.89 133.233 140.46 133.282 139.997 133.281C139.434 133.281 138.918 133.21 138.45 133.069C137.981 132.928 137.58 132.722 137.247 132.45C136.914 132.174 136.654 131.835 136.467 131.434C136.285 131.033 136.194 130.572 136.194 130.051C136.195 129.254 136.422 128.575 136.876 128.012C137.329 127.445 137.97 126.982 138.799 126.624C138.642 126.509 138.486 126.376 138.33 126.225C138.174 126.069 138.034 125.894 137.909 125.701C137.789 125.503 137.69 125.287 137.612 125.052C137.54 124.813 137.503 124.552 137.504 124.271C137.504 123.859 137.577 123.495 137.723 123.177C137.874 122.86 138.08 122.592 138.341 122.373C138.602 122.155 138.909 121.991 139.263 121.882C139.617 121.768 140 121.711 140.412 121.711C140.818 121.712 141.188 121.77 141.521 121.884C141.86 121.994 142.148 122.153 142.388 122.362C142.633 122.57 142.822 122.821 142.958 123.112C143.093 123.404 143.16 123.73 143.16 124.089C143.159 124.714 142.979 125.235 142.62 125.651C142.265 126.062 141.731 126.413 141.017 126.704C141.377 126.845 141.702 127.017 141.993 127.221C142.285 127.424 142.553 127.651 142.798 127.901C143.047 128.152 143.279 128.42 143.492 128.707C143.706 128.993 143.916 129.291 144.124 129.598C144.547 129.01 144.865 128.362 145.079 127.654C145.293 126.946 145.401 126.204 145.401 125.428C145.401 125.23 145.388 125.045 145.362 124.873C145.342 124.696 145.311 124.521 145.269 124.349L146.511 124.351C146.553 124.522 146.576 124.687 146.581 124.843C146.592 124.994 146.602 125.176 146.612 125.39C146.612 125.864 146.562 126.34 146.463 126.819C146.363 127.298 146.23 127.764 146.063 128.217C145.896 128.665 145.7 129.092 145.476 129.498C145.257 129.904 145.025 130.276 144.78 130.614C144.962 130.865 145.128 131.083 145.279 131.271C145.43 131.454 145.581 131.607 145.732 131.733C145.888 131.858 146.047 131.952 146.208 132.014C146.375 132.072 146.563 132.101 146.771 132.101C146.927 132.101 147.086 132.08 147.248 132.039C147.409 131.997 147.576 131.945 147.748 131.883L147.747 133.071C147.559 133.143 147.361 133.198 147.153 133.234C146.95 133.27 146.749 133.288 146.551 133.288ZM139.997 132.172C140.393 132.172 140.758 132.131 141.091 132.048C141.425 131.96 141.732 131.846 142.013 131.705C142.295 131.56 142.55 131.393 142.779 131.206C143.009 131.014 143.217 130.813 143.405 130.605C143.088 130.11 142.794 129.688 142.523 129.339C142.258 128.984 141.987 128.679 141.711 128.424C141.441 128.168 141.149 127.949 140.837 127.767C140.53 127.584 140.173 127.414 139.767 127.258C139.439 127.388 139.136 127.533 138.86 127.694C138.584 127.85 138.344 128.037 138.141 128.256C137.943 128.469 137.787 128.719 137.672 129.006C137.557 129.292 137.499 129.628 137.499 130.013C137.499 130.367 137.564 130.68 137.694 130.951C137.824 131.222 138.001 131.449 138.224 131.631C138.453 131.808 138.719 131.944 139.021 132.038C139.323 132.127 139.648 132.172 139.997 132.172ZM141.957 124.197C141.957 123.937 141.908 123.716 141.809 123.533C141.715 123.351 141.593 123.2 141.442 123.08C141.296 122.96 141.132 122.874 140.95 122.821C140.768 122.764 140.588 122.735 140.411 122.735C139.901 122.734 139.492 122.872 139.184 123.148C138.882 123.423 138.728 123.798 138.722 124.272C138.722 124.486 138.753 124.686 138.816 124.874C138.883 125.061 138.974 125.236 139.089 125.398C139.208 125.559 139.346 125.703 139.502 125.828C139.659 125.953 139.825 126.06 140.002 126.149C140.659 125.92 141.148 125.655 141.471 125.353C141.795 125.046 141.956 124.661 141.957 124.197ZM154.254 133.116L154.263 121.913L157.357 121.916C161.305 121.92 163.277 123.743 163.274 127.383C163.273 129.113 162.722 130.503 161.623 131.554C160.528 132.599 159.061 133.121 157.223 133.119L154.254 133.116ZM155.574 123.102L155.568 131.93L157.239 131.932C158.708 131.933 159.852 131.541 160.67 130.756C161.488 129.97 161.898 128.856 161.899 127.413C161.901 124.543 160.377 123.107 157.324 123.104L155.574 123.102ZM171.188 133.134L169.906 133.132L169.907 131.882L169.876 131.882C169.318 132.84 168.497 133.318 167.414 133.317C166.617 133.316 165.992 133.105 165.54 132.683C165.092 132.26 164.868 131.7 164.869 131.002C164.87 129.507 165.751 128.638 167.512 128.396L169.91 128.062C169.911 126.703 169.362 126.022 168.263 126.021C167.3 126.02 166.43 126.348 165.653 127.003L165.654 125.69C166.441 125.191 167.348 124.942 168.374 124.943C170.254 124.945 171.193 125.941 171.192 127.931L171.188 133.134ZM169.91 129.085L167.98 129.349C167.386 129.432 166.938 129.58 166.636 129.793C166.333 130.001 166.182 130.373 166.182 130.91C166.181 131.3 166.319 131.621 166.595 131.871C166.876 132.116 167.248 132.239 167.712 132.239C168.347 132.24 168.871 132.019 169.283 131.577C169.7 131.13 169.908 130.565 169.909 129.882L169.91 129.085ZM177.473 133.062C177.17 133.228 176.772 133.311 176.277 133.311C174.876 133.309 174.176 132.527 174.177 130.965L174.181 126.23L172.806 126.229L172.807 125.135L174.182 125.137L174.183 123.184L175.465 122.771L175.463 125.138L177.479 125.14L177.478 126.234L175.462 126.232L175.459 130.74C175.458 131.276 175.549 131.659 175.731 131.888C175.914 132.118 176.216 132.233 176.637 132.233C176.96 132.233 177.239 132.145 177.474 131.968L177.473 133.062ZM185.07 133.148L183.789 133.147L183.79 131.897L183.759 131.897C183.201 132.854 182.38 133.333 181.297 133.332C180.5 133.331 179.875 133.119 179.422 132.697C178.974 132.274 178.751 131.714 178.751 131.016C178.753 129.522 179.634 128.653 181.394 128.41L183.793 128.076C183.794 126.717 183.245 126.037 182.146 126.036C181.182 126.035 180.312 126.362 179.536 127.017L179.537 125.705C180.324 125.206 181.23 124.956 182.256 124.958C184.136 124.959 185.076 125.955 185.074 127.945L185.07 133.148ZM183.792 129.1L181.862 129.363C181.268 129.446 180.82 129.594 180.518 129.807C180.216 130.015 180.064 130.388 180.064 130.924C180.064 131.315 180.202 131.635 180.477 131.885C180.758 132.13 181.131 132.253 181.594 132.254C182.23 132.254 182.753 132.034 183.165 131.591C183.582 131.144 183.791 130.579 183.791 129.897L183.792 129.1Z" fill="#757575"/>
<defs>
<filter id="filter0_d_19_1002" x="105" y="26" width="60" height="58" filterUnits="userSpaceOnUse" color-interpolation-filters="sRGB">
<feFlood flood-opacity="0" result="BackgroundImageFix"/>
<feColorMatrix in="SourceAlpha" type="matrix" values="0 0 0 0 0 0 0 0 0 0 0 0 0 0 0 0 0 0 127 0" result="hardAlpha"/>
<feOffset dy="4"/>
<feGaussianBlur stdDeviation="2"/>
<feComposite in2="hardAlpha" operator="out"/>
<feColorMatrix type="matrix" values="0 0 0 0 0 0 0 0 0 0 0 0 0 0 0 0 0 0 0.05 0"/>
<feBlend mode="normal" in2="BackgroundImageFix" result="effect1_dropShadow_19_1002"/>
<feBlend mode="normal" in="SourceGraphic" in2="effect1_dropShadow_19_1002" result="shape"/>
</filter>
</defs>
</svg>
