<svg width="270" height="157" viewBox="0 0 270 157" fill="none" xmlns="http://www.w3.org/2000/svg">
<rect width="270" height="157" rx="8" fill="#EEEEEE"/>
<g filter="url(#filter0_d_19_988)">
<rect x="109" y="26" width="52" height="50" rx="8" fill="white"/>
</g>
<path d="M140.866 60.0173L128.561 60.0047L128.562 58.4871C128.563 57.8673 128.65 57.2886 128.823 56.751C128.997 56.2043 129.23 55.6942 129.522 55.2205C129.814 54.7377 130.156 54.2869 130.548 53.868C130.94 53.4401 131.36 53.0303 131.807 52.6389C132.254 52.2383 132.71 51.8559 133.175 51.4918C133.64 51.1186 134.096 50.7454 134.543 50.3721C134.963 50.0171 135.346 49.6711 135.692 49.3343C136.039 48.9883 136.335 48.6331 136.582 48.2688C136.828 47.9044 137.02 47.5218 137.157 47.1209C137.294 46.7109 137.363 46.2689 137.363 45.7949C137.363 45.2754 137.282 44.8242 137.118 44.4412C136.963 44.0491 136.74 43.7253 136.449 43.4698C136.166 43.2052 135.829 43.0089 135.437 42.8809C135.046 42.7437 134.617 42.6749 134.152 42.6745C133.35 42.6736 132.535 42.8597 131.705 43.2325C130.875 43.6053 130.077 44.1651 129.311 44.9117L129.313 41.8629C129.715 41.5625 130.12 41.3031 130.531 41.0848C130.941 40.8574 131.365 40.671 131.803 40.5256C132.24 40.3711 132.701 40.2576 133.184 40.1852C133.667 40.1128 134.182 40.0768 134.729 40.0774C135.613 40.0783 136.415 40.1976 137.135 40.4353C137.855 40.6639 138.47 41.0064 138.98 41.4626C139.49 41.9098 139.881 42.4707 140.154 43.1455C140.436 43.8202 140.577 44.5951 140.576 45.4701C140.575 46.2631 140.475 46.9785 140.274 47.6163C140.082 48.245 139.803 48.8326 139.438 49.3791C139.082 49.9256 138.649 50.4447 138.138 50.9364C137.627 51.428 137.057 51.9333 136.428 52.4522C135.899 52.88 135.37 53.2988 134.841 53.7084C134.321 54.1089 133.852 54.5049 133.432 54.8964C133.012 55.2788 132.67 55.6658 132.406 56.0574C132.15 56.44 132.022 56.8272 132.022 57.2192L132.022 57.2875L140.868 57.2966L140.866 60.0173Z" fill="#37BE43"/>
<path d="M101.456 109.022L92.8083 109.013L92.8203 93.6089L101.124 93.6174L101.122 95.7873L95.3752 95.7814L95.3719 100.143L100.668 100.148L100.666 102.307L95.3702 102.302L95.3666 106.857L101.457 106.863L101.456 109.022ZM120.582 109.042L118.09 109.039L118.094 103.045C118.095 101.892 117.931 101.058 117.602 100.542C117.28 100.026 116.733 99.7672 115.959 99.7664C115.308 99.7657 114.752 100.091 114.294 100.742C113.842 101.393 113.616 102.174 113.615 103.083L113.61 109.035L111.107 109.032L111.112 102.834C111.114 100.786 110.391 99.7607 108.945 99.7592C108.272 99.7585 107.716 100.066 107.279 100.681C106.849 101.297 106.633 102.095 106.633 103.076L106.628 109.027L104.136 109.025L104.144 98.0248L106.636 98.0274L106.635 99.7676L106.678 99.7676C107.474 98.4364 108.631 97.7716 110.149 97.7731C110.908 97.7739 111.571 97.9859 112.136 98.409C112.709 98.8249 113.099 99.3732 113.306 100.054C114.123 98.5363 115.341 97.7785 116.96 97.7801C119.38 97.7826 120.59 99.277 120.587 102.263L120.582 109.042ZM126.378 107.458L126.335 107.458L126.334 109.048L123.842 109.045L123.855 92.7599L126.347 92.7624L126.341 99.9812L126.384 99.9812C127.238 98.5212 128.484 97.792 130.124 97.7937C131.514 97.7951 132.598 98.2903 133.378 99.2794C134.165 100.261 134.558 101.579 134.557 103.234C134.555 105.074 134.114 106.549 133.232 107.658C132.35 108.76 131.147 109.31 129.621 109.309C128.189 109.307 127.108 108.69 126.378 107.458ZM126.317 103.086L126.316 104.45C126.316 105.252 126.569 105.933 127.077 106.492C127.593 107.051 128.244 107.331 129.032 107.332C129.956 107.333 130.679 106.975 131.203 106.26C131.733 105.537 131.999 104.531 132 103.242C132.001 102.16 131.754 101.315 131.261 100.706C130.774 100.09 130.112 99.7809 129.274 99.7801C128.386 99.7792 127.67 100.094 127.125 100.723C126.587 101.353 126.318 102.14 126.317 103.086ZM143.705 100.439C143.405 100.203 142.972 100.084 142.406 100.084C141.668 100.083 141.052 100.415 140.557 101.081C140.063 101.746 139.815 102.652 139.814 103.798L139.81 109.061L137.318 109.059L137.326 98.0589L139.819 98.0614L139.817 100.328L139.86 100.328C140.104 99.5549 140.477 98.9537 140.978 98.5245C141.487 98.0882 142.053 97.8704 142.676 97.871C143.127 97.8715 143.471 97.9398 143.707 98.0762L143.705 100.439ZM154.124 109.076L151.707 109.074L151.708 107.355L151.665 107.355C150.905 108.672 149.791 109.329 148.323 109.328C147.241 109.327 146.393 109.032 145.778 108.444C145.169 107.857 144.866 107.079 144.866 106.113C144.868 104.036 146.065 102.827 148.457 102.485L151.723 102.027C151.724 100.458 150.98 99.6735 149.491 99.6719C148.18 99.6706 146.998 100.121 145.945 101.022L145.946 98.8411C147.107 98.1548 148.446 97.8125 149.965 97.814C152.743 97.8169 154.132 99.1861 154.129 101.922L154.124 109.076ZM151.722 103.67L149.412 103.99C148.696 104.083 148.155 104.257 147.789 104.515C147.431 104.765 147.252 105.209 147.251 105.846C147.251 106.312 147.415 106.695 147.745 106.996C148.081 107.29 148.528 107.438 149.087 107.438C149.846 107.439 150.473 107.175 150.968 106.645C151.469 106.109 151.72 105.436 151.721 104.626L151.722 103.67ZM165.269 108.583C164.388 109.09 163.346 109.343 162.142 109.342C160.51 109.34 159.192 108.831 158.191 107.813C157.189 106.788 156.688 105.462 156.69 103.837C156.691 102.025 157.229 100.571 158.304 99.4769C159.387 98.3751 160.83 97.8252 162.635 97.827C163.637 97.8281 164.522 98.0044 165.288 98.3561L165.286 100.676C164.52 100.103 163.704 99.8154 162.837 99.8145C161.785 99.8135 160.921 100.171 160.248 100.886C159.574 101.594 159.237 102.525 159.236 103.678C159.235 104.817 159.549 105.716 160.179 106.375C160.816 107.035 161.668 107.365 162.735 107.366C163.63 107.367 164.475 107.049 165.271 106.413L165.269 108.583ZM177.287 104.277L169.789 104.269C169.817 105.286 170.128 106.07 170.722 106.622C171.323 107.174 172.146 107.451 173.192 107.452C174.367 107.453 175.445 107.104 176.426 106.403L176.425 108.412C175.422 109.041 174.096 109.354 172.449 109.353C170.831 109.351 169.56 108.852 168.637 107.856C167.721 106.852 167.264 105.444 167.265 103.633C167.267 101.921 167.773 100.529 168.783 99.4554C169.801 98.3751 171.062 97.8357 172.566 97.8372C174.07 97.8388 175.233 98.3234 176.056 99.291C176.879 100.259 177.289 101.602 177.288 103.321L177.287 104.277ZM174.882 102.512C174.876 101.617 174.665 100.922 174.25 100.428C173.835 99.9261 173.263 99.6749 172.532 99.6741C171.816 99.6734 171.207 99.9341 170.705 100.456C170.211 100.979 169.906 101.662 169.791 102.507L174.882 102.512Z" fill="#374151"/>
<path d="M117.552 133.079L111.74 133.073L111.748 121.87L113.061 121.871L113.053 131.886L117.553 131.891L117.552 133.079ZM125.691 129.407L120.043 129.401C120.063 130.292 120.302 130.98 120.76 131.465C121.218 131.95 121.848 132.192 122.65 132.193C123.551 132.194 124.38 131.898 125.135 131.305L125.134 132.508C124.431 133.018 123.501 133.272 122.345 133.271C121.214 133.27 120.327 132.907 119.681 132.182C119.036 131.453 118.714 130.429 118.715 129.111C118.716 127.866 119.068 126.854 119.772 126.073C120.481 125.287 121.359 124.895 122.406 124.896C123.453 124.897 124.262 125.237 124.835 125.914C125.407 126.592 125.693 127.532 125.692 128.735L125.691 129.407ZM124.38 128.32C124.375 127.58 124.196 127.005 123.842 126.593C123.493 126.181 123.007 125.975 122.382 125.974C121.777 125.974 121.264 126.189 120.842 126.621C120.42 127.053 120.159 127.618 120.059 128.316L124.38 128.32ZM134.623 132.456C134.62 135.393 133.213 136.86 130.4 136.857C129.411 136.856 128.546 136.668 127.807 136.292L127.808 135.011C128.709 135.512 129.568 135.763 130.386 135.764C132.354 135.766 133.34 134.72 133.341 132.626L133.342 131.751L133.311 131.751C132.7 132.771 131.783 133.281 130.559 133.279C129.565 133.278 128.763 132.923 128.154 132.214C127.55 131.5 127.249 130.544 127.25 129.346C127.251 127.987 127.577 126.907 128.229 126.105C128.886 125.304 129.782 124.904 130.917 124.905C131.996 124.906 132.795 125.339 133.315 126.204L133.346 126.204L133.347 125.095L134.628 125.096L134.623 132.456ZM133.344 129.478L133.345 128.298C133.345 127.663 133.129 127.118 132.697 126.664C132.271 126.211 131.737 125.984 131.096 125.983C130.305 125.982 129.685 126.271 129.236 126.848C128.788 127.421 128.563 128.225 128.563 129.262C128.562 130.152 128.775 130.866 129.201 131.403C129.633 131.935 130.203 132.201 130.912 132.202C131.631 132.202 132.214 131.948 132.662 131.438C133.116 130.928 133.343 130.274 133.344 129.478ZM143.102 133.105L141.821 133.104L141.822 131.854L141.791 131.853C141.233 132.811 140.412 133.29 139.329 133.288C138.532 133.288 137.907 133.076 137.454 132.654C137.007 132.231 136.783 131.671 136.784 130.973C136.785 129.479 137.666 128.61 139.426 128.367L141.825 128.033C141.826 126.674 141.277 125.994 140.178 125.992C139.215 125.991 138.345 126.319 137.568 126.974L137.569 125.662C138.356 125.162 139.262 124.913 140.288 124.914C142.169 124.916 143.108 125.912 143.106 127.902L143.102 133.105ZM141.824 129.057L139.894 129.32C139.301 129.403 138.852 129.551 138.55 129.764C138.248 129.972 138.097 130.344 138.096 130.881C138.096 131.272 138.234 131.592 138.51 131.842C138.791 132.087 139.163 132.21 139.626 132.211C140.262 132.211 140.785 131.99 141.197 131.548C141.614 131.101 141.823 130.536 141.824 129.854L141.824 129.057ZM151.13 132.746C150.515 133.115 149.786 133.299 148.942 133.298C147.801 133.297 146.88 132.926 146.177 132.186C145.48 131.441 145.132 130.477 145.132 129.294C145.134 127.977 145.512 126.92 146.268 126.124C147.024 125.322 148.032 124.922 149.292 124.924C149.995 124.924 150.615 125.055 151.151 125.316L151.15 126.629C150.557 126.211 149.922 126.002 149.244 126.002C148.427 126.001 147.755 126.295 147.228 126.883C146.707 127.465 146.446 128.233 146.445 129.186C146.444 130.124 146.689 130.864 147.178 131.406C147.672 131.948 148.333 132.22 149.161 132.22C149.859 132.221 150.516 131.99 151.131 131.527L151.13 132.746ZM159.6 125.122L155.914 134.399C155.256 136.055 154.333 136.882 153.146 136.881C152.813 136.88 152.534 136.846 152.31 136.778L152.311 135.63C152.587 135.724 152.84 135.771 153.069 135.771C153.715 135.772 154.199 135.387 154.523 134.617L155.165 133.102L152.046 125.114L153.468 125.115L155.627 131.274C155.653 131.352 155.707 131.555 155.79 131.883L155.837 131.884C155.863 131.759 155.916 131.561 155.994 131.29L158.272 125.12L159.6 125.122Z" fill="#757575"/>
<defs>
<filter id="filter0_d_19_988" x="105" y="26" width="60" height="58" filterUnits="userSpaceOnUse" color-interpolation-filters="sRGB">
<feFlood flood-opacity="0" result="BackgroundImageFix"/>
<feColorMatrix in="SourceAlpha" type="matrix" values="0 0 0 0 0 0 0 0 0 0 0 0 0 0 0 0 0 0 127 0" result="hardAlpha"/>
<feOffset dy="4"/>
<feGaussianBlur stdDeviation="2"/>
<feComposite in2="hardAlpha" operator="out"/>
<feColorMatrix type="matrix" values="0 0 0 0 0 0 0 0 0 0 0 0 0 0 0 0 0 0 0.05 0"/>
<feBlend mode="normal" in2="BackgroundImageFix" result="effect1_dropShadow_19_988"/>
<feBlend mode="normal" in="SourceGraphic" in2="effect1_dropShadow_19_988" result="shape"/>
</filter>
</defs>
</svg>
