<svg width="241" height="56" viewBox="0 0 241 56" fill="none" xmlns="http://www.w3.org/2000/svg">
<mask id="mask0_17_19" style="mask-type:alpha" maskUnits="userSpaceOnUse" x="0" y="0" width="241" height="56">
<rect width="241" height="56" fill="#D9D9D9"/>
</mask>
<g mask="url(#mask0_17_19)">
<path d="M56.988 45.9407C56.1767 46.3693 55.1665 46.5836 53.9572 46.5836C52.3959 46.5836 51.1459 46.081 50.2071 45.0759C49.2682 44.0707 48.7988 42.7518 48.7988 41.1191C48.7988 39.3639 49.3269 37.9455 50.3831 36.8638C51.4393 35.7821 52.7786 35.2413 54.4011 35.2413C55.442 35.2413 56.3043 35.3918 56.988 35.6928V37.0628C56.2022 36.624 55.3348 36.4046 54.3858 36.4046C53.1255 36.4046 52.1025 36.8255 51.3168 37.6674C50.5361 38.5093 50.1458 39.6343 50.1458 41.0425C50.1458 42.3793 50.5106 43.4457 51.2403 44.2417C51.975 45.0325 52.9368 45.4279 54.1256 45.4279C55.2277 45.4279 56.1818 45.183 56.988 44.6932V45.9407Z" fill="#374151"/>
<path d="M66.7188 46.5836C65.5606 46.5836 64.6345 46.2188 63.9406 45.4892C63.2518 44.7544 62.9074 43.7825 62.9074 42.5732C62.9074 41.2568 63.2671 40.2287 63.9865 39.4889C64.706 38.7491 65.6779 38.3792 66.9025 38.3792C68.0709 38.3792 68.9817 38.7389 69.6347 39.4583C70.2929 40.1777 70.622 41.1752 70.622 42.4508C70.622 43.7008 70.2674 44.7034 69.5582 45.4585C68.8541 46.2086 67.9076 46.5836 66.7188 46.5836ZM66.8106 39.4353C66.0045 39.4353 65.3667 39.7108 64.8973 40.2619C64.4279 40.8078 64.1932 41.563 64.1932 42.5273C64.1932 43.4559 64.4304 44.1881 64.9049 44.7238C65.3795 45.2596 66.0147 45.5274 66.8106 45.5274C67.6219 45.5274 68.2444 45.2647 68.6781 44.7391C69.1169 44.2136 69.3363 43.4661 69.3363 42.4967C69.3363 41.517 69.1169 40.7619 68.6781 40.2313C68.2444 39.7006 67.6219 39.4353 66.8106 39.4353Z" fill="#374151"/>
<path d="M83.5214 46.3999H82.2662V41.9303C82.2662 40.267 81.6591 39.4353 80.4447 39.4353C79.8171 39.4353 79.2967 39.6726 78.8834 40.1471C78.4752 40.6165 78.2711 41.2109 78.2711 41.9303V46.3999H77.016V38.5628H78.2711V39.8639H78.3018C78.8936 38.8741 79.7508 38.3792 80.8733 38.3792C81.7305 38.3792 82.3861 38.6572 82.8402 39.2134C83.2943 39.7644 83.5214 40.5629 83.5214 41.6089V46.3999Z" fill="#374151"/>
<path d="M89.8082 46.1167V44.7697C90.4919 45.2749 91.2445 45.5274 92.0659 45.5274C93.168 45.5274 93.7191 45.1601 93.7191 44.4253C93.7191 44.2161 93.6706 44.0401 93.5737 43.8973C93.4818 43.7493 93.3543 43.6192 93.191 43.5069C93.0328 43.3947 92.844 43.2952 92.6246 43.2084C92.4103 43.1166 92.1782 43.0222 91.9282 42.9253C91.5812 42.7875 91.2751 42.6497 91.0098 42.512C90.7496 42.3691 90.5302 42.211 90.3516 42.0375C90.1781 41.8589 90.0454 41.6574 89.9536 41.4329C89.8669 41.2084 89.8235 40.9456 89.8235 40.6446C89.8235 40.2772 89.9077 39.9532 90.0761 39.6726C90.2444 39.3869 90.4689 39.1496 90.7496 38.9608C91.0302 38.7669 91.3491 38.6215 91.7062 38.5246C92.0685 38.4276 92.441 38.3792 92.8236 38.3792C93.5022 38.3792 94.1094 38.4965 94.6451 38.7312V40.0017C94.0686 39.6241 93.4053 39.4353 92.6553 39.4353C92.4206 39.4353 92.2088 39.4634 92.02 39.5195C91.8312 39.5705 91.668 39.6445 91.5302 39.7415C91.3975 39.8384 91.293 39.9558 91.2164 40.0935C91.145 40.2262 91.1093 40.3741 91.1093 40.5374C91.1093 40.7415 91.145 40.9124 91.2164 41.0502C91.293 41.188 91.4026 41.3104 91.5455 41.4176C91.6884 41.5247 91.8619 41.6216 92.0659 41.7084C92.27 41.7951 92.5022 41.8895 92.7624 41.9916C93.1094 42.1242 93.4206 42.262 93.6961 42.4048C93.9716 42.5426 94.2063 42.7008 94.4002 42.8794C94.5941 43.0528 94.7421 43.2544 94.8441 43.484C94.9513 43.7136 95.0048 43.9865 95.0048 44.3029C95.0048 44.6907 94.9181 45.0274 94.7446 45.3131C94.5763 45.5989 94.3492 45.8361 94.0635 46.0249C93.7778 46.2137 93.4487 46.354 93.0762 46.4458C92.7037 46.5377 92.3134 46.5836 91.9052 46.5836C91.0991 46.5836 90.4001 46.428 89.8082 46.1167Z" fill="#374151"/>
<path d="M107.667 46.3999H106.412V45.1601H106.381C105.861 46.1091 105.055 46.5836 103.963 46.5836C102.095 46.5836 101.162 45.4713 101.162 43.2467V38.5628H102.409V43.0477C102.409 44.7009 103.042 45.5274 104.307 45.5274C104.919 45.5274 105.422 45.3029 105.815 44.8539C106.213 44.3998 106.412 43.808 106.412 43.0783V38.5628H107.667V46.3999Z" fill="#374151"/>
<path d="M115.852 46.3999H114.597V34.7974H115.852V46.3999Z" fill="#374151"/>
<path d="M126.417 46.3234C126.121 46.4867 125.731 46.5683 125.246 46.5683C123.873 46.5683 123.187 45.8029 123.187 44.2723V39.6343H121.84V38.5628H123.187V36.6495L124.442 36.2439V38.5628H126.417V39.6343H124.442V44.0503C124.442 44.5759 124.532 44.9509 124.71 45.1754C124.889 45.3999 125.185 45.5121 125.598 45.5121C125.914 45.5121 126.187 45.4254 126.417 45.2519V46.3234Z" fill="#374151"/>
<path d="M133.125 36.573C132.9 36.573 132.709 36.4964 132.551 36.3433C132.392 36.1903 132.313 35.9964 132.313 35.7617C132.313 35.527 132.392 35.3331 132.551 35.18C132.709 35.0219 132.9 34.9428 133.125 34.9428C133.354 34.9428 133.548 35.0219 133.706 35.18C133.87 35.3331 133.951 35.527 133.951 35.7617C133.951 35.9862 133.87 36.1775 133.706 36.3357C133.548 36.4939 133.354 36.573 133.125 36.573ZM133.737 46.3999H132.482V38.5628H133.737V46.3999Z" fill="#374151"/>
<path d="M147.172 46.3999H145.917V41.9303C145.917 40.267 145.31 39.4353 144.095 39.4353C143.468 39.4353 142.947 39.6726 142.534 40.1471C142.126 40.6165 141.922 41.2109 141.922 41.9303V46.3999H140.667V38.5628H141.922V39.8639H141.952C142.544 38.8741 143.401 38.3792 144.524 38.3792C145.381 38.3792 146.037 38.6572 146.491 39.2134C146.945 39.7644 147.172 40.5629 147.172 41.6089V46.3999Z" fill="#374151"/>
<path d="M160.622 45.7723C160.622 48.65 159.245 50.0889 156.49 50.0889C155.52 50.0889 154.673 49.9052 153.949 49.5378V48.2827C154.831 48.7725 155.673 49.0174 156.474 49.0174C158.403 49.0174 159.367 47.9918 159.367 45.9407V45.0835H159.337C158.74 46.0836 157.842 46.5836 156.643 46.5836C155.668 46.5836 154.882 46.2366 154.285 45.5427C153.693 44.8437 153.398 43.9075 153.398 42.7339C153.398 41.4022 153.716 40.3435 154.354 39.5578C154.997 38.772 155.875 38.3792 156.987 38.3792C158.043 38.3792 158.826 38.8026 159.337 39.6496H159.367V38.5628H160.622V45.7723ZM159.367 42.8564V41.7007C159.367 41.0783 159.155 40.5451 158.732 40.1012C158.314 39.6573 157.791 39.4353 157.163 39.4353C156.387 39.4353 155.78 39.7185 155.341 40.2848C154.903 40.8461 154.683 41.6344 154.683 42.6497C154.683 43.5222 154.892 44.2212 155.311 44.7468C155.734 45.2672 156.293 45.5274 156.987 45.5274C157.691 45.5274 158.263 45.2774 158.701 44.7774C159.145 44.2774 159.367 43.637 159.367 42.8564Z" fill="#374151"/>
<path d="M184.615 45.6499C183.513 46.2724 182.288 46.5836 180.941 46.5836C179.375 46.5836 178.107 46.0785 177.137 45.0682C176.173 44.058 175.691 42.7212 175.691 41.0578C175.691 39.3588 176.227 37.9659 177.298 36.8791C178.375 35.7872 179.737 35.2413 181.385 35.2413C182.579 35.2413 183.582 35.4351 184.393 35.8229V37.2465C183.505 36.6852 182.454 36.4046 181.24 36.4046C180.01 36.4046 179.002 36.8281 178.217 37.675C177.431 38.522 177.038 39.619 177.038 40.966C177.038 42.3538 177.403 43.4457 178.132 44.2417C178.862 45.0325 179.852 45.4279 181.102 45.4279C181.959 45.4279 182.701 45.257 183.329 44.9152V41.8385H180.926V40.6752H184.615V45.6499Z" fill="#374151"/>
<path d="M195.478 39.8333C195.259 39.6649 194.943 39.5807 194.529 39.5807C193.994 39.5807 193.545 39.8333 193.182 40.3384C192.825 40.8435 192.647 41.5324 192.647 42.4048V46.3999H191.391V38.5628H192.647V40.1777H192.677C192.856 39.6267 193.129 39.1981 193.496 38.8919C193.863 38.5807 194.274 38.4251 194.728 38.4251C195.055 38.4251 195.305 38.4608 195.478 38.5322V39.8333Z" fill="#374151"/>
<path d="M204.505 46.5836C203.347 46.5836 202.421 46.2188 201.727 45.4892C201.038 44.7544 200.694 43.7825 200.694 42.5732C200.694 41.2568 201.053 40.2287 201.773 39.4889C202.492 38.7491 203.464 38.3792 204.689 38.3792C205.857 38.3792 206.768 38.7389 207.421 39.4583C208.079 40.1777 208.408 41.1752 208.408 42.4508C208.408 43.7008 208.054 44.7034 207.345 45.4585C206.64 46.2086 205.694 46.5836 204.505 46.5836ZM204.597 39.4353C203.791 39.4353 203.153 39.7108 202.684 40.2619C202.214 40.8078 201.979 41.563 201.979 42.5273C201.979 43.4559 202.217 44.1881 202.691 44.7238C203.166 45.2596 203.801 45.5274 204.597 45.5274C205.408 45.5274 206.031 45.2647 206.464 44.7391C206.903 44.2136 207.123 43.4661 207.123 42.4967C207.123 41.517 206.903 40.7619 206.464 40.2313C206.031 39.7006 205.408 39.4353 204.597 39.4353Z" fill="#374151"/>
<path d="M221.139 46.3999H219.884V45.1601H219.854C219.333 46.1091 218.527 46.5836 217.435 46.5836C215.568 46.5836 214.634 45.4713 214.634 43.2467V38.5628H215.881V43.0477C215.881 44.7009 216.514 45.5274 217.779 45.5274C218.392 45.5274 218.894 45.3029 219.287 44.8539C219.685 44.3998 219.884 43.808 219.884 43.0783V38.5628H221.139V46.3999Z" fill="#374151"/>
<path d="M229.355 45.2672H229.324V50.0047H228.069V38.5628H229.324V39.9404H229.355C229.972 38.8996 230.875 38.3792 232.064 38.3792C233.074 38.3792 233.863 38.7312 234.429 39.4353C234.995 40.1343 235.278 41.0731 235.278 42.2518C235.278 43.5631 234.96 44.6141 234.322 45.405C233.684 46.1907 232.812 46.5836 231.704 46.5836C230.689 46.5836 229.906 46.1448 229.355 45.2672ZM229.324 42.1064V43.2008C229.324 43.8488 229.533 44.3998 229.952 44.8539C230.375 45.3029 230.911 45.5274 231.559 45.5274C232.319 45.5274 232.914 45.2366 233.342 44.6549C233.776 44.0733 233.993 43.2646 233.993 42.2288C233.993 41.3563 233.791 40.6726 233.388 40.1777C232.985 39.6828 232.439 39.4353 231.75 39.4353C231.021 39.4353 230.434 39.6904 229.99 40.2007C229.546 40.7058 229.324 41.341 229.324 42.1064Z" fill="#374151"/>
<rect x="24.5996" y="43.6023" width="3.30909" height="34.2282" transform="rotate(-180 24.5996 43.6023)" fill="#37BE43"/>
<rect x="5.83057" y="28.1426" width="3.30909" height="34.2282" transform="rotate(-90 5.83057 28.1426)" fill="#37BE43"/>
<path d="M48.9873 22.374V6.26953H53.6367C59.5739 6.26953 62.5425 8.88623 62.5425 14.1196C62.5425 16.6053 61.7189 18.6043 60.0718 20.1167C58.4246 21.6216 56.216 22.374 53.4458 22.374H48.9873ZM51.6489 8.53809V20.1167H53.7827C55.6619 20.1167 57.1219 19.6001 58.1626 18.5669C59.2108 17.5337 59.7349 16.0737 59.7349 14.187C59.7349 10.4211 57.7845 8.53809 53.8838 8.53809H51.6489Z" fill="#374151"/>
<path d="M70.5363 22.374H67.7849V6.26953H70.5363V22.374Z" fill="#374151"/>
<path d="M89.3788 21.2734C87.7017 22.1868 85.8337 22.6436 83.7748 22.6436C81.3939 22.6436 79.466 21.9023 77.9911 20.4199C76.5162 18.9375 75.7787 16.9759 75.7787 14.5352C75.7787 12.042 76.5836 9.99805 78.1933 8.40332C79.8104 6.80111 81.8619 6 84.3476 6C86.1369 6 87.6418 6.26204 88.8622 6.78613V9.5376C87.6269 8.71403 86.1557 8.30225 84.4486 8.30225C82.7341 8.30225 81.3266 8.86751 80.226 9.99805C79.1329 11.1286 78.5863 12.5923 78.5863 14.3892C78.5863 16.2384 79.058 17.6947 80.0014 18.7578C80.9447 19.8135 82.225 20.3413 83.8422 20.3413C84.9503 20.3413 85.9086 20.1279 86.7172 19.7012V15.8716H83.3256V13.6255H89.3788V21.2734Z" fill="#374151"/>
<path d="M97.8893 22.374H95.1378V6.26953H97.8893V22.374Z" fill="#374151"/>
<path d="M114.497 8.53809H109.87V22.374H107.197V8.53809H102.581V6.26953H114.497V8.53809Z" fill="#374151"/>
<path d="M130.7 22.374H127.769L126.32 18.2749H119.986L118.594 22.374H115.674L121.705 6.26953H124.714L130.7 22.374ZM125.613 16.0962L123.378 9.67236C123.311 9.46273 123.239 9.12581 123.165 8.66162H123.12C123.052 9.08838 122.977 9.42529 122.895 9.67236L120.683 16.0962H125.613Z" fill="#374151"/>
<path d="M144.141 22.374H135.224V6.26953H137.897V20.1167H144.141V22.374Z" fill="#374151"/>
<path d="M168.756 6.26953L164.342 22.374H161.321L158.255 11.1099C158.128 10.6307 158.049 10.1066 158.019 9.5376H157.975C157.937 10.0692 157.847 10.5858 157.705 11.0874L154.628 22.374H151.539L147.036 6.26953H149.967L152.887 18.0615C153.007 18.5557 153.082 19.0723 153.112 19.6113H153.168C153.198 19.2295 153.303 18.7129 153.482 18.0615L156.784 6.26953H159.536L162.59 18.1514C162.695 18.5557 162.774 19.0348 162.826 19.5889H162.871C162.893 19.2145 162.98 18.7204 163.129 18.1064L165.993 6.26953H168.756Z" fill="#374151"/>
<path d="M179.928 22.6436C177.607 22.6436 175.746 21.8911 174.346 20.3862C172.954 18.8813 172.257 16.9235 172.257 14.5127C172.257 11.9222 172.969 9.85579 174.391 8.31348C175.814 6.77116 177.745 6 180.186 6C182.447 6 184.267 6.7487 185.644 8.24609C187.029 9.74349 187.722 11.7013 187.722 14.1196C187.722 16.7476 187.014 18.8252 185.599 20.3525C184.184 21.8799 182.294 22.6436 179.928 22.6436ZM180.051 8.34717C178.576 8.34717 177.375 8.89746 176.446 9.99805C175.525 11.0986 175.065 12.5474 175.065 14.3442C175.065 16.1336 175.514 17.5749 176.413 18.668C177.311 19.7611 178.487 20.3076 179.939 20.3076C181.481 20.3076 182.698 19.7873 183.589 18.7466C184.48 17.7059 184.925 16.2497 184.925 14.3779C184.925 12.4538 184.491 10.9676 183.623 9.91943C182.762 8.87126 181.571 8.34717 180.051 8.34717Z" fill="#374151"/>
<path d="M205.419 22.374H202.297L199.725 18.0615C199.493 17.6647 199.264 17.3278 199.04 17.0508C198.823 16.7663 198.598 16.5342 198.366 16.3545C198.141 16.1748 197.894 16.0438 197.625 15.9614C197.355 15.8791 197.052 15.8379 196.715 15.8379H195.637V22.374H192.975V6.26953H198.276C199.032 6.26953 199.729 6.35938 200.365 6.53906C201.001 6.71875 201.555 6.99202 202.027 7.35889C202.499 7.71826 202.866 8.17122 203.128 8.71777C203.397 9.25684 203.532 9.88949 203.532 10.6157C203.532 11.1847 203.446 11.7088 203.274 12.188C203.109 12.6597 202.869 13.0827 202.555 13.457C202.248 13.8239 201.874 14.1383 201.432 14.4004C200.998 14.6624 200.507 14.8646 199.961 15.0068V15.0518C200.253 15.2165 200.507 15.3999 200.724 15.6021C200.942 15.7967 201.147 15.9989 201.342 16.2085C201.537 16.4181 201.728 16.6577 201.915 16.9272C202.11 17.1893 202.323 17.4963 202.555 17.8481L205.419 22.374ZM195.637 8.43701V13.6704H197.861C198.272 13.6704 198.651 13.6068 198.995 13.4795C199.347 13.3522 199.65 13.1688 199.905 12.9292C200.159 12.6896 200.358 12.3976 200.5 12.0532C200.642 11.7088 200.713 11.3232 200.713 10.8965C200.713 10.1253 200.47 9.52262 199.983 9.08838C199.497 8.65413 198.797 8.43701 197.883 8.43701H195.637Z" fill="#374151"/>
<path d="M221.791 22.374H218.309L212.705 15.0068C212.495 14.7298 212.368 14.5426 212.323 14.4453H212.278V22.374H209.605V6.26953H212.278V13.8389H212.323C212.413 13.6742 212.54 13.4907 212.705 13.2886L218.107 6.26953H221.308L214.985 13.9961L221.791 22.374Z" fill="#374151"/>
<path d="M225.225 21.7339V18.9824C225.472 19.207 225.764 19.4092 226.101 19.5889C226.445 19.7686 226.808 19.922 227.19 20.0493C227.572 20.1691 227.954 20.2627 228.336 20.3301C228.717 20.3975 229.069 20.4312 229.391 20.4312C230.514 20.4312 231.349 20.244 231.896 19.8696C232.45 19.4953 232.727 18.9525 232.727 18.2412C232.727 17.8594 232.633 17.5299 232.446 17.2529C232.266 16.9684 232.012 16.7101 231.682 16.478C231.353 16.2459 230.964 16.0251 230.514 15.8154C230.073 15.5983 229.597 15.3737 229.088 15.1416C228.542 14.8496 228.032 14.5539 227.561 14.2544C227.089 13.9549 226.677 13.6255 226.325 13.2661C225.981 12.8993 225.708 12.4875 225.506 12.0308C225.311 11.5741 225.214 11.0387 225.214 10.4248C225.214 9.66862 225.382 9.01351 225.719 8.45947C226.063 7.89795 226.513 7.4375 227.067 7.07812C227.628 6.71126 228.265 6.44173 228.976 6.26953C229.687 6.08984 230.413 6 231.154 6C232.839 6 234.067 6.19092 234.838 6.57275V9.21191C233.925 8.55306 232.749 8.22363 231.312 8.22363C230.915 8.22363 230.518 8.26107 230.121 8.33594C229.732 8.41081 229.38 8.53434 229.066 8.70654C228.759 8.87874 228.508 9.09961 228.313 9.36914C228.119 9.63867 228.021 9.96436 228.021 10.3462C228.021 10.7056 228.096 11.0163 228.246 11.2783C228.396 11.5404 228.613 11.7799 228.897 11.9971C229.189 12.2142 229.541 12.4276 229.953 12.6372C230.372 12.8394 230.855 13.0602 231.402 13.2998C231.963 13.5918 232.491 13.8988 232.985 14.2207C233.487 14.5426 233.925 14.8983 234.299 15.2876C234.681 15.6769 234.98 16.1112 235.197 16.5903C235.422 17.062 235.534 17.6011 235.534 18.2075C235.534 19.0236 235.37 19.7124 235.04 20.2739C234.711 20.8354 234.265 21.2922 233.704 21.644C233.15 21.9959 232.51 22.2505 231.783 22.4077C231.057 22.5649 230.29 22.6436 229.481 22.6436C229.212 22.6436 228.878 22.6211 228.482 22.5762C228.092 22.5387 227.692 22.4788 227.28 22.3965C226.868 22.3216 226.479 22.228 226.112 22.1157C225.745 22.0034 225.449 21.8761 225.225 21.7339Z" fill="#374151"/>
</g>
</svg>
